<?xml version="1.0" encoding="UTF-8"?>
<svg version="1.1" xmlns="http://www.w3.org/2000/svg" width="1000" height="139">
<path d="M0 0 C2.61655579 2.60201937 3.05542487 3.44266791 3.359375 7.1328125 C3.05356261 11.98280585 1.73650616 15.98725137 0.109375 20.53515625 C-0.17679687 21.36208984 -0.46296875 22.18902344 -0.7578125 23.04101562 C-1.45916405 25.06324593 -2.17357052 27.08094053 -2.890625 29.09765625 C-2.15199219 28.40800781 -1.41335937 27.71835938 -0.65234375 27.0078125 C6.06736306 20.76928091 12.94324886 14.82406218 20.109375 9.09765625 C20.88023437 8.44667969 21.65109375 7.79570313 22.4453125 7.125 C31.21944182 -0.12520159 38.61428722 -2.36459528 50.0078125 -2.23828125 C52.95990293 -1.91853342 54.66492751 -1.53759483 57.109375 0.09765625 C60.23940112 4.52286559 60.22261578 7.52818674 59.55947876 12.6312561 C58.80989996 16.73866738 57.48882867 20.58968251 56.08984375 24.515625 C55.79000076 25.37650223 55.49015778 26.23737946 55.18122864 27.12434387 C54.54955913 28.93015721 53.91315394 30.73432043 53.2722168 32.53686523 C52.29740191 35.28367155 51.34209135 38.03671994 50.38867188 40.79101562 C49.76938176 42.55379076 49.14897681 44.31617472 48.52734375 46.078125 C48.24489304 46.89387497 47.96244232 47.70962494 47.6714325 48.5500946 C45.13710477 55.61322535 41.80079768 62.15105218 35.109375 66.09765625 C29.32842346 68.26417241 24.08667307 68.49235913 18.109375 67.09765625 C13.85814123 64.54691599 11.72967222 61.7785149 10.109375 57.09765625 C10.23743924 49.79799468 12.85194235 42.98545075 15.109375 36.09765625 C14.779375 35.76765625 14.449375 35.43765625 14.109375 35.09765625 C8.64860491 39.51085004 3.23825887 43.96460658 -2.06323242 48.56738281 C-26.76376286 69.98430421 -26.76376286 69.98430421 -39.58984375 69.42578125 C-42.8322945 68.96336043 -45.18618522 67.9231531 -47.890625 66.09765625 C-50.8167798 61.70842406 -50.65214695 58.25696746 -49.890625 53.09765625 C-48.59849105 48.77681945 -46.90574208 44.61352583 -45.203125 40.44140625 C-43.7688306 37.38605705 -43.7688306 37.38605705 -43.890625 35.09765625 C-49.77461702 39.87324095 -55.6157651 44.69105357 -61.390625 49.59765625 C-65.54084368 53.11772733 -69.69887743 56.62706955 -73.890625 60.09765625 C-74.73625 60.79890625 -75.581875 61.50015625 -76.453125 62.22265625 C-82.19060001 66.63609856 -86.33252996 68.23360356 -93.53125 68.1953125 C-95.13613281 68.19047852 -95.13613281 68.19047852 -96.7734375 68.18554688 C-97.88460937 68.17716797 -98.99578125 68.16878906 -100.140625 68.16015625 C-101.83058594 68.15338867 -101.83058594 68.15338867 -103.5546875 68.14648438 C-106.33338717 68.13471022 -109.11197909 68.11826465 -111.890625 68.09765625 C-110.35042825 60.49877941 -108.14449737 53.20434093 -105.79296875 45.8203125 C-105.20147789 43.94876747 -105.20147789 43.94876747 -104.59803772 42.03941345 C-103.76913322 39.41736702 -102.93771106 36.79613802 -102.10424805 34.17553711 C-101.0356245 30.8153086 -99.97190939 27.45355159 -98.90985775 24.09124088 C-97.89367185 20.87531454 -96.87455787 17.66032009 -95.85546875 14.4453125 C-95.47317612 13.23706314 -95.09088348 12.02881378 -94.69700623 10.78395081 C-94.3431636 9.67196823 -93.98932098 8.55998566 -93.62475586 7.41430664 C-93.15748329 5.94278893 -93.15748329 5.94278893 -92.68077087 4.44154358 C-91.890625 2.09765625 -91.890625 2.09765625 -90.890625 0.09765625 C-79.340625 0.09765625 -67.790625 0.09765625 -55.890625 0.09765625 C-56.55665104 4.75983852 -57.20683386 8.61581331 -58.51953125 13.03125 C-58.83212891 14.09150391 -59.14472656 15.15175781 -59.46679688 16.24414062 C-59.79228516 17.33017578 -60.11777344 18.41621094 -60.453125 19.53515625 C-60.78248047 20.64826172 -61.11183594 21.76136719 -61.45117188 22.90820312 C-62.2599658 25.63934783 -63.07322913 28.36907611 -63.890625 31.09765625 C-62.95863281 30.28683594 -62.02664062 29.47601563 -61.06640625 28.640625 C-57.69550202 25.71077782 -54.31872423 22.78779035 -50.93896484 19.86816406 C-49.64124791 18.74646642 -48.34456799 17.62356698 -47.04931641 16.49902344 C-15.93437871 -10.48654383 -15.93437871 -10.48654383 0 0 Z " fill="#1B1C20" transform="translate(131.890625,57.90234375)"/>
<path d="M0 0 C11.88 0 23.76 0 36 0 C34.27997342 6.30676414 32.5749677 12.53608664 30.63989258 18.76635742 C30.42487595 19.46046722 30.20985931 20.15457703 29.98832703 20.86972046 C29.29216469 23.11552342 28.59338288 25.36050135 27.89453125 27.60546875 C27.40540956 29.1815338 26.91645472 30.75765064 26.42765808 32.33381653 C25.1519769 36.44579813 23.8740575 40.55708067 22.59564209 44.66821289 C21.28699623 48.87799129 19.98050788 53.08843913 18.67382812 57.29882812 C16.11797521 65.53320214 13.55975311 73.76683758 11 82 C12.75054 80.57319041 14.50030888 79.14543471 16.24975586 77.71728516 C17.71148476 76.52481674 17.71148476 76.52481674 19.20274353 75.30825806 C22.11524347 72.90490265 24.96450934 70.44319875 27.79199219 67.94116211 C39.92966585 57.2043755 51.0695749 47.87937342 68.16015625 48.5703125 C71 49 71 49 74.3125 50.8125 C77.86673125 57.52604791 76.33025066 64.50706591 74.25666809 71.522995 C73.24126563 74.76184972 72.18204149 77.98374745 71.09277344 81.19848633 C70.2500302 83.6874108 69.43173166 86.18336213 68.6171875 88.68164062 C68.08473843 90.29213189 67.55093001 91.90217451 67.015625 93.51171875 C66.65286469 94.61201668 66.65286469 94.61201668 66.28277588 95.73454285 C63.603302 103.60343092 61.06871724 110.14891954 54 115 C47.40418485 118.24004955 40.42316024 120.48999958 33.06640625 118.46875 C30.44150594 117.46463013 28.37906074 116.42644333 26.5 114.3125 C25.01577091 107.44794047 28.02799236 99.99531907 30.0625 93.5 C30.34416016 92.5821875 30.62582031 91.664375 30.91601562 90.71875 C31.6048013 88.47727797 32.29955305 86.23784969 33 84 C32.00033203 84.92619141 32.00033203 84.92619141 30.98046875 85.87109375 C25.42209542 90.97857806 19.78078325 95.89659715 13.8984375 100.6328125 C11.79244379 102.35280197 9.72026711 104.08971023 7.6640625 105.8671875 C7.09606934 106.35646729 6.52807617 106.84574707 5.94287109 107.34985352 C4.85059701 108.2935821 3.76207978 109.24168488 2.67822266 110.19506836 C-3.77794608 115.75631247 -9.74989263 119.14583393 -18.421875 119.09765625 C-19.95908203 119.09282227 -19.95908203 119.09282227 -21.52734375 119.08789062 C-22.59082031 119.07951172 -23.65429688 119.07113281 -24.75 119.0625 C-25.82894531 119.05798828 -26.90789063 119.05347656 -28.01953125 119.04882812 C-30.67974383 119.03705727 -33.33984365 119.02061399 -36 119 C-35.39757207 113.93255109 -34.30173079 109.23530675 -32.75024414 104.36938477 C-32.52232178 103.6394783 -32.29439941 102.90957184 -32.05957031 102.157547 C-31.30655206 99.75052748 -30.54588428 97.34599913 -29.78515625 94.94140625 C-29.249557 93.23460141 -28.71444599 91.52764329 -28.17979431 89.82054138 C-26.76636294 85.31205616 -25.34647861 80.80562899 -23.9251709 76.29962158 C-22.51866101 71.83698285 -21.11788446 67.37254659 -19.71679688 62.90820312 C-17.79974483 56.80156229 -15.88084799 50.69550766 -13.95931053 44.59027672 C-9.28356049 29.73389698 -4.64088912 14.86731146 0 0 Z M10 82 C11 84 11 84 11 84 Z " fill="#EF7C00" transform="translate(866,7)"/>
<path d="M0 0 C1.3461916 0.00561817 2.69238947 0.0098777 4.03858948 0.01286316 C7.52546117 0.02413782 11.01193804 0.05344702 14.49865723 0.0869751 C18.07912866 0.11805878 21.65966596 0.13144895 25.24023438 0.14648438 C32.22411716 0.17834011 39.20774258 0.229316 46.19140625 0.29296875 C43.4779986 10.43651399 40.45108292 20.4629462 37.31323242 30.48217773 C36.68929491 32.4844188 36.07179729 34.48867782 35.46069336 36.49487305 C34.5672034 39.4260464 33.65301643 42.35006289 32.734375 45.2734375 C32.46852097 46.16008591 32.20266693 47.04673431 31.92875671 47.96025085 C29.59886139 55.24610812 26.24582513 61.7822822 19.44140625 65.73046875 C12.30513632 68.77527725 5.36655962 69.08970853 -1.890625 66.328125 C-4.63462506 64.84714737 -6.18020935 62.91254365 -7.80859375 60.29296875 C-8.39125 60.76347656 -8.97390625 61.23398438 -9.57421875 61.71875 C-17.60062054 67.81427211 -25.39025075 70.77896858 -35.55859375 70.23046875 C-43.74528094 69.10127052 -49.13052587 65.91687794 -54.33203125 59.4921875 C-59.25365928 52.16182617 -59.86072095 44.0592783 -58.3046875 35.53125 C-55.46857883 23.91130761 -49.89885221 15.09356437 -39.9296875 8.34375 C-27.37749949 0.99725469 -14.30470651 -0.1762235 0 0 Z M-13.80859375 17.29296875 C-14.98421875 20.78890625 -14.98421875 20.78890625 -16.18359375 24.35546875 C-16.4264209 25.07484619 -16.66924805 25.79422363 -16.91943359 26.53540039 C-20.40501514 36.19602427 -20.40501514 36.19602427 -20.80859375 46.29296875 C-18.11641243 49.1347157 -15.71081786 50.83388356 -11.80859375 51.29296875 C-9.49859375 51.29296875 -7.18859375 51.29296875 -4.80859375 51.29296875 C-1.50859375 40.07296875 1.79140625 28.85296875 5.19140625 17.29296875 C-1.07859375 17.29296875 -7.34859375 17.29296875 -13.80859375 17.29296875 Z " fill="#EF7C00" transform="translate(716.80859375,57.70703125)"/>
<path d="M0 0 C0.81644485 -0.00570007 1.63288971 -0.01140015 2.47407532 -0.01727295 C4.20137239 -0.02670683 5.92868733 -0.03325052 7.65600586 -0.03710938 C10.27425363 -0.04677705 12.89170317 -0.07779939 15.50976562 -0.109375 C17.19400579 -0.11590971 18.87825154 -0.12115834 20.5625 -0.125 C21.72080574 -0.1435202 21.72080574 -0.1435202 22.9025116 -0.16241455 C31.47436444 -0.12798596 38.50700931 2.09685306 44.61328125 8.203125 C46.9338597 11.57851183 46.61328125 12.73915089 46.61328125 17.203125 C36.05328125 17.203125 25.49328125 17.203125 14.61328125 17.203125 C14.05640625 19.513125 13.49953125 21.823125 12.92578125 24.203125 C10.84723926 32.66228695 8.27866939 40.91080635 5.61328125 49.203125 C16.50328125 49.698125 16.50328125 49.698125 27.61328125 50.203125 C26.38973877 56.3208374 24.09987322 59.04151756 19.61328125 63.203125 C15.21795821 65.87479195 11.41008698 66.39061962 6.375 66.76953125 C5.29565186 66.85275635 4.21630371 66.93598145 3.10424805 67.02172852 C2.282229 67.08158936 1.46020996 67.1414502 0.61328125 67.203125 C0.28118652 68.37294922 -0.0509082 69.54277344 -0.39306641 70.74804688 C-1.6395586 75.121596 -2.90852145 79.48836455 -4.18408203 83.85351562 C-4.73117071 85.73717905 -5.27229658 87.62258564 -5.80712891 89.50976562 C-6.5807279 92.23536952 -7.37615691 94.95380805 -8.17578125 97.671875 C-8.40729889 98.50553589 -8.63881653 99.33919678 -8.87734985 100.19812012 C-10.97747102 107.20646198 -14.17055566 113.20910389 -20.51171875 117.140625 C-27.51685386 119.72947928 -34.83922503 120.51009637 -41.94921875 117.890625 C-44.38671875 116.203125 -44.38671875 116.203125 -46.38671875 113.203125 C-46.90142487 107.38758471 -45.60304151 102.49740203 -43.98046875 96.98828125 C-43.73631226 96.13254013 -43.49215576 95.27679901 -43.24060059 94.39512634 C-42.4645814 91.68273224 -41.67587386 88.97422296 -40.88671875 86.265625 C-40.35592629 84.41886232 -39.8259695 82.57185923 -39.296875 80.72460938 C-38.00314323 76.21460853 -36.69802514 71.70804581 -35.38671875 67.203125 C-40.33671875 67.203125 -45.28671875 67.203125 -50.38671875 67.203125 C-49.35438092 61.00909804 -47.59773556 56.05162108 -45.38671875 50.203125 C-40.43671875 49.873125 -35.48671875 49.543125 -30.38671875 49.203125 C-30.10473633 48.15447266 -29.82275391 47.10582031 -29.53222656 46.02539062 C-28.47473951 42.10180549 -27.40599659 38.18135779 -26.33398438 34.26171875 C-25.8732684 32.57113631 -25.41552975 30.87973936 -24.9609375 29.1875 C-24.3035661 26.74253972 -23.63522044 24.30079715 -22.96484375 21.859375 C-22.7667511 21.11320923 -22.56865845 20.36704346 -22.36456299 19.5982666 C-20.48961928 12.84393537 -18.08200289 5.65256574 -12.38671875 1.203125 C-8.31122689 -0.06557162 -4.23116817 0.02298527 0 0 Z " fill="#EE7B00" transform="translate(581.38671875,7.796875)"/>
<path d="M0 0 C6.47808404 5.3021942 9.87245404 11.45329963 12.4921875 19.3125 C13.5159673 30.18806251 11.55712202 39.00712448 4.6171875 47.5625 C-4.28810674 56.79108875 -16.48383445 61.13004917 -29.109375 61.6484375 C-44.16734002 61.87427595 -59.56504562 61.85591237 -71.5078125 51.3125 C-77.79282207 45.14858888 -80.82199418 39.95129464 -81.53125 31.125 C-81.4467483 20.98479587 -77.55117161 12.57513559 -70.62109375 5.34375 C-53.32918953 -10.69117887 -19.6233483 -13.20449606 0 0 Z M-38.5078125 9.3125 C-39.4359375 11.7875 -40.3640625 14.2625 -41.3203125 16.8125 C-41.84765625 18.21875 -42.375 19.625 -42.90234375 21.03125 C-43.1653125 21.73612549 -43.42828125 22.44100098 -43.69921875 23.16723633 C-44.24431939 24.61343177 -44.79924099 26.05595869 -45.36328125 27.49487305 C-47.11566605 32.00361312 -48.08001157 35.44880789 -47.5078125 40.3125 C-45.42674585 43.6653296 -42.22162803 44.4184333 -38.5078125 45.3125 C-36.93834377 45.36668285 -35.36716867 45.38187307 -33.796875 45.36328125 C-32.9920166 45.35594971 -32.1871582 45.34861816 -31.35791016 45.34106445 C-30.44211182 45.32692505 -30.44211182 45.32692505 -29.5078125 45.3125 C-27.79483233 40.50841067 -26.08594061 35.70289462 -24.38085938 30.89599609 C-23.79995716 29.26017805 -23.21793003 27.62475904 -22.63476562 25.98974609 C-21.79783398 23.64263676 -20.96492823 21.29413282 -20.1328125 18.9453125 C-19.87032715 18.21192657 -19.6078418 17.47854065 -19.33740234 16.72293091 C-17.98051002 13.10644392 -17.98051002 13.10644392 -17.5078125 9.3125 C-24.4378125 9.3125 -31.3678125 9.3125 -38.5078125 9.3125 Z " fill="#1B1C20" transform="translate(272.5078125,65.6875)"/>
<path d="M0 0 C6.47808404 5.3021942 9.87245404 11.45329963 12.4921875 19.3125 C13.45577178 30.57537854 11.75846394 38.66981833 4.6171875 47.5 C-4.27438192 56.81707356 -16.53189492 61.18496007 -29.21484375 61.61328125 C-31.24991207 61.63259838 -33.28518262 61.6360727 -35.3203125 61.625 C-36.38330566 61.62008545 -37.44629883 61.6151709 -38.54150391 61.61010742 C-51.30627999 61.41907662 -63.67861884 58.9631617 -73.3828125 50.0625 C-79.74601584 43.03740317 -81.21218014 36.19695166 -80.87890625 26.8046875 C-79.78528415 16.51312797 -75.4378407 8.96239507 -67.5078125 2.3125 C-48.94892689 -9.82391411 -19.14022173 -12.87940154 0 0 Z M-38.5078125 9.3125 C-40.01965775 13.35008673 -41.51757932 17.39194205 -43.0078125 21.4375 C-43.43707031 22.57960938 -43.86632812 23.72171875 -44.30859375 24.8984375 C-44.71464844 26.00703125 -45.12070312 27.115625 -45.5390625 28.2578125 C-45.91611328 29.27375488 -46.29316406 30.28969727 -46.68164062 31.33642578 C-47.5644805 34.51663208 -47.82077346 37.02930773 -47.5078125 40.3125 C-44.02665552 43.89035578 -41.06111961 45.20681676 -36.1484375 45.41015625 C-35.35953125 45.39855469 -34.570625 45.38695312 -33.7578125 45.375 C-32.55898438 45.36146484 -32.55898438 45.36146484 -31.3359375 45.34765625 C-30.73265625 45.33605469 -30.129375 45.32445312 -29.5078125 45.3125 C-27.79266504 40.66996988 -26.08384423 36.02517928 -24.38085938 31.37817383 C-23.80056537 29.79745686 -23.21854384 28.21737297 -22.63476562 26.63793945 C-21.79623339 24.36834072 -20.96392842 22.09654208 -20.1328125 19.82421875 C-19.87032715 19.11786789 -19.6078418 18.41151703 -19.33740234 17.6837616 C-18.27086247 14.75178285 -17.5078125 12.45900219 -17.5078125 9.3125 C-24.4378125 9.3125 -31.3678125 9.3125 -38.5078125 9.3125 Z " fill="#1B1C20" transform="translate(436.5078125,65.6875)"/>
<path d="M0 0 C11.55 0 23.1 0 35 0 C31.62512678 13.49949287 31.62512678 13.49949287 29.96630859 18.77709961 C29.59516937 19.9639183 29.22403015 21.150737 28.84164429 22.3735199 C28.44788605 23.62053177 28.05412781 24.86754364 27.6484375 26.15234375 C27.22556644 27.50051683 26.80301774 28.84879106 26.38076782 30.19715881 C25.27265276 33.73291807 24.16050925 37.26739657 23.04736328 40.80157471 C21.7291812 44.98910031 20.41526568 49.1779665 19.10173416 53.3669529 C18.01894228 56.81944887 16.93381903 60.27117347 15.84344482 63.72128296 C13.90511472 69.86291832 11.98453635 76.00735928 10.15711784 82.18305492 C9.56419003 84.1865233 8.96562401 86.18822787 8.3656311 88.18959045 C7.63108934 90.64929679 6.90816744 93.11251767 6.19955444 95.57981873 C3.77470966 103.64942921 0.90257894 111.98375713 -6.6875 116.5 C-12.97305289 119.10796363 -19.96411777 119.97753564 -26.5 117.875 C-30.30017244 115.83919333 -31.67019946 115.078055 -33 111 C-32.69072876 102.00874067 -29.63191819 93.65832133 -26.93359375 85.15625 C-26.41540295 83.50286381 -25.89792537 81.84925395 -25.38111877 80.19543457 C-24.01880395 75.84294312 -22.64651025 71.49366077 -21.27215576 67.1449585 C-19.90364396 62.80825219 -18.54514434 58.46841365 -17.18554688 54.12890625 C-11.52119603 36.06528969 -5.79030512 18.02364066 0 0 Z " fill="#EF7C00" transform="translate(640,7)"/>
<path d="M0 0 C6.6 0 13.2 0 20 0 C18.52475753 8.47859137 16.06611033 16.45916209 13.375 24.625 C12.9500028 25.92821659 12.52552006 27.23160107 12.1015625 28.53515625 C11.07274653 31.6917507 10.03707134 34.84610815 9 38 C16.59 38.33 24.18 38.66 32 39 C29.82261878 45.53214366 27.80950515 49.78501627 21.76953125 53.296875 C15.6012172 56.00348021 9.6653005 56.51463767 3 57 C2.69819824 58.04865234 2.39639648 59.09730469 2.08544922 60.17773438 C0.9505831 64.1040468 -0.20652337 68.02352096 -1.37011719 71.94140625 C-1.86862791 73.63105451 -2.3612625 75.3224489 -2.84765625 77.015625 C-8.46001177 96.52086058 -8.46001177 96.52086058 -16.9375 103.375 C-23.95344122 107.09774432 -30.28923328 107.78565124 -38 106 C-40.84013157 104.61592029 -41.88444252 103.50526544 -44 101 C-45.42918022 96.01656163 -44.53445954 92.20510759 -42.98046875 87.40625 C-42.65252068 86.34162537 -42.65252068 86.34162537 -42.31794739 85.25549316 C-41.61988373 82.99968826 -40.90398345 80.75001367 -40.1875 78.5 C-39.71692326 76.98864682 -39.24751067 75.47693064 -38.77929688 73.96484375 C-36.91165898 67.95596134 -34.99000002 61.97000007 -33 56 C-37.62 56 -42.24 56 -47 56 C-44.94921875 48.87109375 -44.94921875 48.87109375 -44 46 C-43.61714844 44.79601563 -43.23429687 43.59203125 -42.83984375 42.3515625 C-40.55374048 38.18706864 -38.18975221 37.28532921 -33.875 35.9375 C-32.51558557 35.45001841 -31.15877566 34.95521178 -29.8046875 34.453125 C-29.14952148 34.21142578 -28.49435547 33.96972656 -27.81933594 33.72070312 C-13.45254511 28.02951062 -6.52520456 13.05040911 0 0 Z " fill="#1B1C20" transform="translate(334,19)"/>
<path d="M0 0 C1.21107422 -0.02384766 2.42214844 -0.04769531 3.66992188 -0.07226562 C12.25870845 -0.05831524 19.08563269 1.3755554 25.77758789 7.00537109 C28.21083421 9.58482286 29.04908615 11.19719621 29.1796875 14.75390625 C29.14101563 15.68074219 29.10234375 16.60757813 29.0625 17.5625 C28.16942139 17.60008423 28.16942139 17.60008423 27.25830078 17.63842773 C24.56780864 17.75427494 21.8776766 17.87705196 19.1875 18 C17.78177734 18.05897461 17.78177734 18.05897461 16.34765625 18.11914062 C15.45175781 18.16103516 14.55585937 18.20292969 13.6328125 18.24609375 C12.39168701 18.30108032 12.39168701 18.30108032 11.12548828 18.35717773 C9.00070571 18.44488327 9.00070571 18.44488327 7.0625 19.5625 C6.74202109 23.13945811 6.66043019 24.98277144 8.7421875 27.984375 C9.46664062 28.75265625 10.19109375 29.5209375 10.9375 30.3125 C15.06495739 35.18641245 16.93604438 39.14487703 17.0625 45.5625 C16.19651205 54.77194878 10.87792055 61.47668862 4 67.3125 C-1.53317191 70.88228833 -8.81196873 69.78567884 -15.125 69.8125 C-16.91647461 69.8434375 -16.91647461 69.8434375 -18.74414062 69.875 C-27.52520294 69.9136618 -35.57592567 69.33043814 -42.4375 63.3125 C-43.41203125 62.50039062 -43.41203125 62.50039062 -44.40625 61.671875 C-46.51922451 58.76114481 -46.63356119 56.09156729 -46.9375 52.5625 C-46.29200195 52.5531543 -45.64650391 52.54380859 -44.98144531 52.53417969 C-42.04936056 52.48040899 -39.11885992 52.3967766 -36.1875 52.3125 C-34.66382813 52.29123047 -34.66382813 52.29123047 -33.109375 52.26953125 C-27.39919477 52.12410973 -27.39919477 52.12410973 -22.234375 49.953125 C-20.3658672 46.50876725 -20.34486769 44.43325926 -20.9375 40.5625 C-22.52114946 38.19995942 -24.00055614 36.27661392 -25.875 34.1875 C-29.45900655 29.86383796 -32.26338544 26.35510934 -32.2421875 20.546875 C-31.23592393 13.99326096 -27.73919646 8.93920555 -22.9375 4.5625 C-15.77666371 -0.10504659 -8.304839 -0.07489775 0 0 Z " fill="#EF7C00" transform="translate(803.9375,56.4375)"/>
<path d="M0 0 C1.39257271 -0.00786278 1.39257271 -0.00786278 2.8132782 -0.0158844 C4.77419029 -0.02229587 6.73514089 -0.02097894 8.69604492 -0.01245117 C11.67892961 -0.00396398 14.65988355 -0.03267778 17.64257812 -0.06445312 C19.55338485 -0.06606601 21.46419493 -0.06548594 23.375 -0.0625 C24.25859695 -0.07373398 25.14219391 -0.08496796 26.05256653 -0.09654236 C32.96023315 -0.01977815 38.10896026 1.75512692 43.48046875 6.14453125 C44.1765625 6.96824219 44.1765625 6.96824219 44.88671875 7.80859375 C45.37140625 8.35257812 45.85609375 8.8965625 46.35546875 9.45703125 C47.38671875 11.43359375 47.38671875 11.43359375 47.38671875 17.43359375 C31.54671875 17.92859375 31.54671875 17.92859375 15.38671875 18.43359375 C14.37351562 22.08421875 14.37351562 22.08421875 13.33984375 25.80859375 C12.67317128 28.18886658 12.00371073 30.56833878 11.33398438 32.94775391 C10.87338672 34.5898426 10.41564871 36.2327364 9.9609375 37.87646484 C9.30325775 40.25190027 8.63502395 42.62415883 7.96484375 44.99609375 C7.7667511 45.72038574 7.56865845 46.44467773 7.36456299 47.19091797 C5.07750356 55.20081074 2.41757401 61.65261217 -4.61328125 66.43359375 C-10.2017815 69.22784387 -16.50404482 68.98593567 -22.61328125 68.43359375 C-26.82500215 66.90866032 -28.13314333 66.15380064 -30.61328125 62.43359375 C-30.80432532 55.63420375 -28.92520752 48.80118518 -27.25 42.26171875 C-27.01674515 41.33566833 -26.7834903 40.40961792 -26.54316711 39.45550537 C-26.0517884 37.51512593 -25.55664 35.57569749 -25.05786133 33.63720703 C-24.3000499 30.68074054 -23.56259266 27.71966993 -22.82617188 24.7578125 C-22.34367385 22.86296866 -21.85999065 20.96842613 -21.375 19.07421875 C-21.04975594 17.75686737 -21.04975594 17.75686737 -20.71794128 16.41290283 C-19.15365302 10.4346209 -17.28462116 5.73046661 -12.46411133 1.58569336 C-8.30701843 -0.09430334 -4.44522318 -0.01466788 0 0 Z " fill="#1B1C20" transform="translate(481.61328125,58.56640625)"/>
<path d="M0 0 C7.54996623 0 12.30478327 4.42806131 18 9 C19.89128342 10.89128342 19.2366852 13.57067726 19.328125 16.08984375 C19.21984375 16.72019531 19.1115625 17.35054687 19 18 C16 20 16 20 13.4375 19.6875 C11 19 11 19 9 18 C9.6496875 19.17755859 9.6496875 19.17755859 10.3125 20.37890625 C16.01849045 31.1436799 16.01849045 31.1436799 15 37 C13 39 13 39 10.5625 39.25 C8 39 8 39 5 37 C5.3609375 37.71285156 5.721875 38.42570312 6.09375 39.16015625 C9.41883356 46.02275926 11.4205309 51.43584094 9 59 C5.9164232 58.36816907 3.58622008 57.32811656 0.890625 55.71484375 C0.13652344 55.26689453 -0.61757813 54.81894531 -1.39453125 54.35742188 C-2.56048828 53.65456055 -2.56048828 53.65456055 -3.75 52.9375 C-4.54277344 52.46505859 -5.33554687 51.99261719 -6.15234375 51.50585938 C-8.10426616 50.34176107 -10.05249765 49.17147794 -12 48 C-11.01 44.04 -10.02 40.08 -9 36 C-7.35 36.66 -5.7 37.32 -4 38 C-3.34 38 -2.68 38 -2 38 C-2.37253906 37.21496094 -2.74507812 36.42992187 -3.12890625 35.62109375 C-8.07957836 24.62709438 -8.07957836 24.62709438 -6 19 C-4.1875 17.5 -4.1875 17.5 -2 17 C-0.65755571 17.29450332 0.67830282 17.62316391 2 18 C1.71125 17.41992188 1.4225 16.83984375 1.125 16.2421875 C-1.02577587 11.7165966 -2.73199796 8.12398571 -2 3 C-1.34 2.01 -0.68 1.02 0 0 Z " fill="#EF7C00" transform="translate(981,0)"/>
<path d="M0 0 C3.57410997 3.01813731 5.65640091 5.19487956 6.23828125 9.9453125 C6.48811886 17.28264853 4.64467112 23.06941849 -0.3125 28.5625 C-3.90212218 30.48253047 -5.97857252 30.63496223 -10 30 C-13.47032954 27.9659366 -15.70165148 25.89504555 -17 22 C-17.70620064 14.83380004 -17.28607025 8.95368802 -13 3 C-8.89829148 -0.85312012 -5.40174049 -1.51248734 0 0 Z M-10 9 C-10.33 10.98 -10.66 12.96 -11 15 C-6.4947161 18.35622898 -6.4947161 18.35622898 -1 19 C-0.67 17.68 -0.34 16.36 0 15 C-1.28716647 13.99421411 -2.57988658 12.99553202 -3.875 12 C-4.59429688 11.443125 -5.31359375 10.88625 -6.0546875 10.3125 C-7.8852085 8.81356623 -7.8852085 8.81356623 -10 9 Z " fill="#EF7C00" transform="translate(981,55)"/>
<path d="M0 0 C3.0413374 1.63764322 5.28615407 3.09993339 7.4375 5.8125 C8.31181393 9.21260975 7.90368834 11.62623021 7 15 C4.14367325 18.37565888 2.45490589 18.93501344 -1.9375 19.5625 C-6.63923411 19.33988001 -8.78082305 17.29769346 -12 14 C-13.44430855 11.11138291 -13.37688506 9.20352299 -13 6 C-8.91278658 1.15987884 -6.34886627 -0.61046791 0 0 Z " fill="#EF7C00" transform="translate(965,109)"/>
<path d="M0 0 C0.66 0.66 1.32 1.32 2 2 C1.44444444 6.55555556 1.44444444 6.55555556 0 8 C-1.99958364 8.04080783 -4.00045254 8.04254356 -6 8 C-6 8.66 -6 9.32 -6 10 C-3.03 10.99 -0.06 11.98 3 13 C3.66 9.7 4.32 6.4 5 3 C9 5 9 5 9.828125 6.83984375 C10.03283197 9.41263813 9.59078328 11.12670137 8.75 13.5625 C8.49734375 14.32691406 8.2446875 15.09132813 7.984375 15.87890625 C6.91715303 18.1785155 6.006384 19.45551736 4 21 C-2.52341816 21.85553025 -2.52341816 21.85553025 -5.8203125 19.9453125 C-7.99249062 18.17189171 -9.73772527 16.52454947 -11 14 C-11.25844625 8.8310749 -11.11814802 4.82467048 -9 0 C-5.88135455 -1.55932272 -3.33704665 -0.65549131 0 0 Z " fill="#EF7C00" transform="translate(970,84)"/>
</svg>
